<?xml version="1.0" standalone="no"?><!DOCTYPE svg PUBLIC "-//W3C//DTD SVG 1.1//EN" "http://www.w3.org/Graphics/SVG/1.1/DTD/svg11.dtd"><svg class="icon" width="200px" height="200.00px" viewBox="0 0 1024 1024" version="1.1" xmlns="http://www.w3.org/2000/svg"><path fill="#333333" d="M533.6 670.6c-0.9-3-2.4-5.7-4.3-8.1l19.8-14.7c7.2-5.3 10.3-14.7 7.5-23.3l-9.4-29.5c-2.8-8.7-10.9-14.6-20-14.6h-30.5c-9.1 0-17.2 5.9-20 14.6l-9.4 29.5c-2.7 8.6 0.3 17.9 7.5 23.3l19.8 14.7c-1.9 2.3-3.4 5-4.3 8.1l-24.6 84c-1.6 5.3-1.1 11 1.3 16l24.6 51.9c3.7 7.9 11.6 12.9 20.3 12.9s16.6-5 20.3-12.9l24.6-51.9c2.4-5 2.8-10.7 1.3-16l-24.5-84zM512 622.8l0.1 0.2h-0.2l0.1-0.2z m0 137.6l-0.6-1.4 0.6-2.2 0.6 2.2-0.6 1.4zM866.3 712c-19.4-45.8-47.1-86.9-82.4-122.2s-76.4-63-122.2-82.4c-7.2-3-14.5-5.9-21.8-8.5 8.4-6.2 16.3-13.1 23.8-20.6 40.5-40.5 62.8-94.4 62.8-151.7s-22.3-111.2-62.8-151.7c-40.5-40.5-94.4-62.8-151.7-62.8s-111.2 22.3-151.7 62.8-62.8 94.4-62.8 151.7 22.3 111.2 62.8 151.7c7.5 7.5 15.5 14.4 23.8 20.6-7.3 2.6-14.6 5.4-21.8 8.5-45.8 19.4-86.9 47.1-122.2 82.4s-63 76.4-82.4 122.2c-20.1 47.4-30.2 97.8-30.2 149.7 0 6.6 0.2 13.2 0.5 19.8l63.9-3.2c-0.3-5.5-0.4-11-0.4-16.5 0-176.7 143.8-320.5 320.5-320.5s320.5 143.8 320.5 320.5c0 5.5-0.1 11.1-0.4 16.5l63.9 3.2c0.3-6.5 0.5-13.2 0.5-19.8 0-51.9-10.1-102.2-30.2-149.7zM361.5 326.6c0-83 67.5-150.5 150.5-150.5s150.5 67.5 150.5 150.5S595 477.2 512 477.2s-150.5-67.5-150.5-150.6z" /></svg>