<?xml version="1.0" standalone="no"?><!DOCTYPE svg PUBLIC "-//W3C//DTD SVG 1.1//EN" "http://www.w3.org/Graphics/SVG/1.1/DTD/svg11.dtd"><svg class="icon" width="200px" height="200.00px" viewBox="0 0 1024 1024" version="1.1" xmlns="http://www.w3.org/2000/svg"><path fill="#333333" d="M864 861H160c-17.7 0-32-14.3-32-32V195c0-17.7 14.3-32 32-32h704c17.7 0 32 14.3 32 32v634c0 17.7-14.3 32-32 32z m-672-64h640V227H192v570zM369.1 673.4c-8.3 0-16.3-3.2-22.3-9.1L242.8 563c-12.7-12.3-12.9-32.6-0.6-45.3 12.3-12.7 32.6-12.9 45.3-0.6l75.9 74 108.7-169.3c5.3-8.2 14.1-13.6 23.8-14.6 9.7-1 19.4 2.6 26.2 9.6l102.6 106.4 107.8-158.7c9.9-14.6 29.8-18.4 44.4-8.5 14.6 9.9 18.4 29.8 8.5 44.4L655.4 592c-5.4 8-14.1 13.1-23.8 13.9-9.6 0.8-19.1-2.7-25.8-9.7L504 490.5 396 658.7c-5.2 8.1-13.7 13.4-23.3 14.5-1.2 0.1-2.4 0.2-3.6 0.2z" /></svg>