<?xml version="1.0" standalone="no"?><!DOCTYPE svg PUBLIC "-//W3C//DTD SVG 1.1//EN" "http://www.w3.org/Graphics/SVG/1.1/DTD/svg11.dtd"><svg class="icon" width="200px" height="200.00px" viewBox="0 0 1024 1024" version="1.1" xmlns="http://www.w3.org/2000/svg"><path fill="#1296db" d="M162.5 359.4c-22.1 0-40 13.1-40 29.2v421.8c0 16.1 17.9 29.2 40 29.2s40-13.1 40-29.2V388.6c0-16.1-17.9-29.2-40-29.2zM397.4 252.8c-22.1 0-40 13.1-40 29.2v528.4c0 16.1 17.9 29.2 40 29.2s40-13.1 40-29.2V282c0-16.1-17.9-29.2-40-29.2zM632.3 413.1c-22.1 0-40 13.1-40 29.2v368c0 16.1 17.9 29.2 40 29.2s40-13.1 40-29.2v-368c0-16.1-17.9-29.2-40-29.2zM867.2 136c-22.1 0-40 13.1-40 29.2v645.2c0 16.1 17.9 29.2 40 29.2s40-13.1 40-29.2V165.1c0-16.1-17.9-29.1-40-29.1z" /></svg>