<?xml version="1.0" standalone="no"?><!DOCTYPE svg PUBLIC "-//W3C//DTD SVG 1.1//EN" "http://www.w3.org/Graphics/SVG/1.1/DTD/svg11.dtd"><svg class="icon" width="200px" height="200.00px" viewBox="0 0 1024 1024" version="1.1" xmlns="http://www.w3.org/2000/svg"><path d="M512 988.27907a476.27907 476.27907 0 1 1 476.27907-476.27907 476.814884 476.814884 0 0 1-476.27907 476.27907z m0-907.192558A430.913488 430.913488 0 1 0 942.925395 512 431.413581 431.413581 0 0 0 512 81.086512z" fill="#3751F9" /><path d="M670.755721 636.737488A158.862884 158.862884 0 0 0 534.623256 479.851163v-226.232558a113.711628 113.711628 0 0 1 69.465302 44.794046 22.623256 22.623256 0 1 0 36.828279-26.481116 159.220093 159.220093 0 0 0-106.293581-64.297675v-47.175441a22.623256 22.623256 0 1 0-45.365582 0v47.175441a158.553302 158.553302 0 0 0 0 313.903628v226.113489a113.116279 113.116279 0 0 1-71.846697-48.235163 22.623256 22.623256 0 0 0-37.780837 25.111814 158.469953 158.469953 0 0 0 109.746604 69.203349v69.810604a22.623256 22.623256 0 0 0 45.365582 0v-69.858232a158.862884 158.862884 0 0 0 136.013395-156.945861zM398.597953 364.579721a113.592558 113.592558 0 0 1 90.778791-111.115907v222.231814a113.592558 113.592558 0 0 1-90.778791-111.115907zM534.623256 747.853395V525.621581a113.402047 113.402047 0 0 1 0 222.231814z" fill="#E9611E" /></svg>