<?xml version="1.0" standalone="no"?><!DOCTYPE svg PUBLIC "-//W3C//DTD SVG 1.1//EN" "http://www.w3.org/Graphics/SVG/1.1/DTD/svg11.dtd"><svg class="icon" width="200px" height="195.61px" viewBox="0 0 1047 1024" version="1.1" xmlns="http://www.w3.org/2000/svg"><path fill="#333333" d="M1047.35117 1024H0v-47.154606h1047.35117v47.154606z m-217.087333-282.975243H217.087334l144.415444-212.231433h-97.855924l133.680095-188.642228h-82.621726L523.675585 0l208.970362 340.127293h-82.597922l133.656292 188.666031h-97.832121z m-523.675585-47.154607h434.174667l-144.391641-212.231432h95.761222L558.452405 292.948883h89.500918L523.675585 90.61968l-124.277738 202.329203h89.500919l-133.680095 188.666031h95.761222z m736.716334 141.487622H595.085892V788.060345h361.09812l-130.204794-200.948604h86.311258l-120.492991-178.739998h80.527023L763.376183 224.466399l-4.189405 8.283595-42.584347-21.089844 43.441271-86.025616 195.45001 329.915618h-74.647574l120.516795 178.739999H913.099793zM547.479021 1000.410795h-47.606871V717.435552h47.606871v282.975243z m238.034357 0h-47.606872V811.863781h47.606872v188.666031z m-333.2481-165.076826H4.046584l130.204793-201.067622H46.012041L166.62405 455.550152H91.881262l195.426207-329.915618 43.417466 86.025616-42.584346 21.089844-4.189405-8.283595-108.924521 183.905344h80.527023l-120.492992 178.739998H221.371952L91.167159 788.060345H452.265278v47.154607z m-142.820614 165.076826h-47.606871V811.863781h47.606871v188.666031z" /></svg>