<?xml version="1.0" standalone="no"?><!DOCTYPE svg PUBLIC "-//W3C//DTD SVG 1.1//EN" "http://www.w3.org/Graphics/SVG/1.1/DTD/svg11.dtd"><svg class="icon" width="200px" height="200.00px" viewBox="0 0 1024 1024" version="1.1" xmlns="http://www.w3.org/2000/svg"><path fill="#1296db" d="M355.4 232.7c0-85.7 69.5-155.3 155.3-155.3 85.7 0 155.3 69.5 155.3 155.3h18.9c78.3 0 144.3 58.3 154.1 136l38.8 310.5c10.6 85.1-49.7 162.7-134.8 173.3-6.4 0.8-12.8 1.2-19.3 1.2H299.1c-85.7 0-155.3-69.5-155.3-155.3 0-6.4 0.4-12.9 1.2-19.3l38.8-310.5c9.7-77.7 75.8-136 154.1-136h17.5z m232.8 155.2H433c0 21.4-17.4 38.8-38.8 38.8s-38.8-17.4-38.8-38.8v-77.6h-11.2c-37.9 0-70.3 27.4-76.6 64.9l-51.8 310.5c-0.7 4.2-1.1 8.5-1.1 12.8 0 42.9 34.8 77.6 77.6 77.6H730c4.3 0 8.5-0.4 12.8-1.1 42.3-7 70.9-47 63.8-89.3L755 375.2c-6.2-37.4-38.6-64.9-76.6-64.9h-12.6v77.6c0 21.4-17.4 38.8-38.8 38.8s-38.8-17.3-38.8-38.8z m0-77.6H433v77.6h155.3v-77.6z m0-77.6c0-42.9-34.8-77.6-77.6-77.6S433 189.8 433 232.7h155.2z" /></svg>